<svg width="540" height="88" viewBox="0 0 540 88" fill="none" xmlns="http://www.w3.org/2000/svg">
<rect width="540" height="88" rx="30" fill="#003E6B"/>
<path d="M173.273 51.03C172.602 51.03 172.036 50.818 171.577 50.394C171.118 49.97 170.888 49.44 170.888 48.804V31.049C170.888 30.3777 171.118 29.83 171.577 29.406C172.036 28.982 172.602 28.77 173.273 28.77C173.98 28.77 174.545 28.982 174.969 29.406C175.428 29.83 175.658 30.3777 175.658 31.049V36.137C175.658 36.8437 176.011 37.197 176.718 37.197H183.873C184.58 37.197 184.933 36.8437 184.933 36.137V31.049C184.933 30.3777 185.145 29.83 185.569 29.406C186.028 28.982 186.611 28.77 187.318 28.77C188.025 28.77 188.59 28.982 189.014 29.406C189.473 29.83 189.703 30.3777 189.703 31.049V48.804C189.703 49.4753 189.473 50.023 189.014 50.447C188.59 50.8357 188.025 51.03 187.318 51.03C186.647 51.03 186.081 50.8357 185.622 50.447C185.163 50.023 184.933 49.4753 184.933 48.804V42.603C184.933 41.8963 184.58 41.543 183.873 41.543H176.718C176.011 41.543 175.658 41.8963 175.658 42.603V48.804C175.658 49.4753 175.428 50.023 174.969 50.447C174.545 50.8357 173.98 51.03 173.273 51.03ZM201.697 51.03C199.295 51.03 197.263 50.3233 195.602 48.91C193.977 47.4613 193.164 45.4827 193.164 42.974C193.164 40.3593 193.959 38.31 195.549 36.826C197.175 35.342 199.206 34.6 201.644 34.6C203.376 34.6 204.807 34.918 205.937 35.554C207.068 36.19 207.916 37.0027 208.481 37.992C209.047 38.9813 209.329 40.0237 209.329 41.119C209.329 42.9563 208.517 43.875 206.891 43.875H198.093C197.811 43.875 197.669 44.0517 197.669 44.405C197.669 45.2177 198.111 45.8713 198.994 46.366C199.913 46.8253 200.938 47.055 202.068 47.055C202.775 47.055 203.482 46.9667 204.188 46.79C204.895 46.578 205.513 46.2777 206.043 45.889C206.397 45.6417 206.768 45.518 207.156 45.518C207.686 45.518 208.128 45.7123 208.481 46.101C208.87 46.4897 209.064 46.949 209.064 47.479C209.064 48.115 208.729 48.7157 208.057 49.281C207.421 49.811 206.485 50.235 205.248 50.553C204.047 50.871 202.863 51.03 201.697 51.03ZM204.453 40.801C204.524 40.801 204.612 40.7833 204.718 40.748C204.86 40.7127 204.93 40.589 204.93 40.377C204.93 39.847 204.595 39.37 203.923 38.946C203.287 38.4867 202.457 38.257 201.432 38.257C200.337 38.257 199.436 38.5043 198.729 38.999C198.058 39.4583 197.722 39.9353 197.722 40.43C197.722 40.6773 197.864 40.801 198.146 40.801H204.453ZM214.933 51.03C214.262 51.03 213.696 50.8357 213.237 50.447C212.778 50.0583 212.548 49.5637 212.548 48.963V29.247C212.548 28.6817 212.76 28.2047 213.184 27.816C213.643 27.392 214.226 27.18 214.933 27.18C215.604 27.18 216.152 27.392 216.576 27.816C217 28.2047 217.212 28.6993 217.212 29.3V48.91C217.212 49.5107 216.982 50.023 216.523 50.447C216.099 50.8357 215.569 51.03 214.933 51.03ZM223.939 51.03C223.268 51.03 222.702 50.8357 222.243 50.447C221.784 50.0583 221.554 49.5637 221.554 48.963V29.247C221.554 28.6817 221.766 28.2047 222.19 27.816C222.649 27.392 223.232 27.18 223.939 27.18C224.61 27.18 225.158 27.392 225.582 27.816C226.006 28.2047 226.218 28.6993 226.218 29.3V48.91C226.218 49.5107 225.988 50.023 225.529 50.447C225.105 50.8357 224.575 51.03 223.939 51.03ZM237.821 51.03C236.301 51.03 234.906 50.6767 233.634 49.97C232.362 49.2633 231.337 48.2917 230.56 47.055C229.818 45.783 229.447 44.352 229.447 42.762C229.447 41.1367 229.818 39.7233 230.56 38.522C231.337 37.2853 232.362 36.3313 233.634 35.66C234.906 34.9533 236.301 34.6 237.821 34.6C239.375 34.6 240.771 34.9533 242.008 35.66C243.28 36.3313 244.287 37.2853 245.029 38.522C245.771 39.7233 246.142 41.1367 246.142 42.762C246.142 44.352 245.771 45.783 245.029 47.055C244.287 48.2917 243.28 49.2633 242.008 49.97C240.771 50.6767 239.375 51.03 237.821 51.03ZM237.821 46.737C238.916 46.737 239.799 46.366 240.471 45.624C241.177 44.8467 241.531 43.8927 241.531 42.762C241.531 41.596 241.177 40.6597 240.471 39.953C239.799 39.2463 238.916 38.893 237.821 38.893C236.761 38.893 235.86 39.2463 235.118 39.953C234.411 40.6597 234.058 41.596 234.058 42.762C234.058 43.8927 234.411 44.8467 235.118 45.624C235.86 46.366 236.761 46.737 237.821 46.737ZM262.65 52.514C259.858 52.514 257.438 51.9487 255.389 50.818C253.375 49.7227 251.82 48.2033 250.725 46.26C249.629 44.2813 249.082 42.0023 249.082 39.423C249.082 36.9143 249.665 34.6883 250.831 32.745C252.032 30.7663 253.657 29.2117 255.707 28.081C257.756 26.9503 260.07 26.385 262.65 26.385C264.946 26.385 267.031 26.862 268.904 27.816C270.776 28.77 272.26 30.0773 273.356 31.738C274.486 33.3987 275.052 35.2713 275.052 37.356C275.052 38.9813 274.698 40.5007 273.992 41.914C273.285 43.292 272.331 44.4227 271.13 45.306C269.964 46.154 268.656 46.578 267.208 46.578C266.607 46.578 266.059 46.4543 265.565 46.207C265.105 45.9597 264.787 45.571 264.611 45.041C263.551 46.101 262.155 46.631 260.424 46.631C258.692 46.631 257.244 46.0303 256.078 44.829C254.947 43.6277 254.382 42.1437 254.382 40.377C254.382 38.8223 254.7 37.4267 255.336 36.19C256.007 34.918 256.89 33.911 257.986 33.169C259.116 32.3917 260.371 32.003 261.749 32.003C263.091 32.003 264.081 32.1797 264.717 32.533C265.353 32.8863 265.847 33.2397 266.201 33.593L266.307 33.222C266.589 32.374 267.102 31.95 267.844 31.95C268.409 31.95 268.868 32.1443 269.222 32.533C269.61 32.8863 269.752 33.3103 269.646 33.805L267.844 42.391C267.844 43.027 268.073 43.345 268.533 43.345C269.169 43.345 269.752 43.08 270.282 42.55C270.847 41.9847 271.289 41.2603 271.607 40.377C271.96 39.4937 272.137 38.5397 272.137 37.515C272.137 35.0063 271.271 32.9747 269.54 31.42C267.844 29.8653 265.547 29.088 262.65 29.088C260.53 29.088 258.675 29.5297 257.085 30.413C255.53 31.2963 254.311 32.5153 253.428 34.07C252.58 35.5893 252.156 37.3737 252.156 39.423C252.156 42.6383 253.11 45.147 255.018 46.949C256.926 48.751 259.47 49.652 262.65 49.652C264.487 49.652 266.254 49.3693 267.95 48.804C268.338 48.6273 268.762 48.6627 269.222 48.91C269.716 49.1573 269.964 49.5637 269.964 50.129C269.964 50.7297 269.681 51.1537 269.116 51.401C268.162 51.7897 267.137 52.0723 266.042 52.249C264.946 52.4257 263.816 52.514 262.65 52.514ZM260.954 43.08C262.296 43.08 263.303 42.5677 263.975 41.543C264.646 40.5183 264.982 39.4053 264.982 38.204C264.982 37.356 264.734 36.667 264.24 36.137C263.78 35.607 263.091 35.342 262.173 35.342C261.148 35.342 260.212 35.766 259.364 36.614C258.516 37.4267 258.092 38.4337 258.092 39.635C258.092 40.589 258.357 41.4017 258.887 42.073C259.417 42.7443 260.106 43.08 260.954 43.08ZM282.608 51.03C281.936 51.03 281.389 50.8357 280.965 50.447C280.541 50.023 280.329 49.4753 280.329 48.804V39.9C280.329 39.5467 280.152 39.37 279.799 39.37H279.057C278.421 39.37 277.944 39.1757 277.626 38.787C277.308 38.3983 277.149 37.9037 277.149 37.303C277.149 36.667 277.308 36.1547 277.626 35.766C277.944 35.342 278.421 35.13 279.057 35.13H279.799C280.152 35.13 280.329 34.9533 280.329 34.6V33.487C280.329 31.5437 280.841 30.0597 281.866 29.035C282.926 27.975 284.304 27.445 286 27.445C286.388 27.445 286.812 27.4803 287.272 27.551C287.766 27.5863 288.155 27.657 288.438 27.763C288.932 27.9397 289.286 28.2223 289.498 28.611C289.745 28.9997 289.869 29.406 289.869 29.83C289.869 30.3953 289.692 30.9253 289.339 31.42C288.985 31.8793 288.491 32.109 287.855 32.109C287.572 32.109 287.307 32.0737 287.06 32.003C286.812 31.9323 286.547 31.897 286.265 31.897C285.417 31.897 284.993 32.4977 284.993 33.699V34.6C284.993 34.9533 285.169 35.13 285.523 35.13H287.484C288.084 35.13 288.579 35.342 288.968 35.766C289.392 36.19 289.604 36.7023 289.604 37.303C289.604 37.9037 289.392 38.3983 288.968 38.787C288.579 39.1757 288.067 39.37 287.431 39.37H285.523C285.169 39.37 284.993 39.5467 284.993 39.9V48.804C284.993 49.44 284.763 49.97 284.304 50.394C283.88 50.818 283.314 51.03 282.608 51.03ZM294.639 51.03C293.967 51.03 293.402 50.8357 292.943 50.447C292.483 50.0583 292.254 49.5637 292.254 48.963V29.247C292.254 28.6817 292.466 28.2047 292.89 27.816C293.349 27.392 293.932 27.18 294.639 27.18C295.31 27.18 295.858 27.392 296.282 27.816C296.706 28.2047 296.918 28.6993 296.918 29.3V36.349C297.377 35.819 297.995 35.395 298.773 35.077C299.55 34.759 300.38 34.6 301.264 34.6C303.242 34.6 304.832 35.183 306.034 36.349C307.27 37.515 307.889 39.37 307.889 41.914V49.069C307.889 49.6343 307.659 50.1113 307.2 50.5C306.776 50.8533 306.228 51.03 305.557 51.03C304.885 51.03 304.32 50.8357 303.861 50.447C303.437 50.0583 303.225 49.5637 303.225 48.963V42.497C303.225 41.1897 302.924 40.2533 302.324 39.688C301.758 39.1227 301.052 38.84 300.204 38.84C299.32 38.84 298.596 39.1403 298.031 39.741C297.465 40.3063 297.094 40.9423 296.918 41.649V48.91C296.918 49.5107 296.688 50.023 296.229 50.447C295.805 50.8357 295.275 51.03 294.639 51.03ZM318.76 51.03C316.393 51.03 314.467 50.288 312.983 48.804C311.534 47.2847 310.81 45.2707 310.81 42.762C310.81 40.2533 311.517 38.2747 312.93 36.826C314.379 35.342 316.269 34.6 318.601 34.6C320.262 34.6 321.71 35.183 322.947 36.349C323.088 35.925 323.353 35.5717 323.742 35.289C324.131 35.0063 324.59 34.865 325.12 34.865C325.827 34.865 326.392 35.077 326.816 35.501C327.275 35.8897 327.505 36.3667 327.505 36.932V48.963C327.505 49.5637 327.275 50.0583 326.816 50.447C326.392 50.8357 325.827 51.03 325.12 51.03C323.954 51.03 323.23 50.5177 322.947 49.493C321.816 50.5177 320.421 51.03 318.76 51.03ZM319.131 46.737C320.262 46.737 321.163 46.366 321.834 45.624C322.505 44.8467 322.841 43.8927 322.841 42.762C322.841 41.596 322.505 40.6597 321.834 39.953C321.163 39.2463 320.262 38.893 319.131 38.893C318.036 38.893 317.135 39.2463 316.428 39.953C315.757 40.6597 315.421 41.596 315.421 42.762C315.421 43.8927 315.757 44.8467 316.428 45.624C317.135 46.366 318.036 46.737 319.131 46.737ZM333.871 50.871C333.2 50.871 332.635 50.6767 332.175 50.288C331.716 49.8993 331.486 49.4047 331.486 48.804V36.932C331.486 36.3667 331.698 35.8897 332.122 35.501C332.582 35.077 333.165 34.865 333.871 34.865C334.507 34.865 335.02 35.0593 335.408 35.448C335.832 35.8013 336.08 36.243 336.15 36.773C336.539 36.1723 337.069 35.66 337.74 35.236C338.412 34.812 339.118 34.6 339.86 34.6C340.32 34.6 340.761 34.653 341.185 34.759C341.68 34.9003 342.086 35.183 342.404 35.607C342.722 35.9957 342.881 36.455 342.881 36.985C342.881 37.727 342.634 38.3453 342.139 38.84C341.68 39.2993 341.132 39.4583 340.496 39.317C340.037 39.211 339.578 39.158 339.118 39.158C338.306 39.158 337.634 39.4407 337.104 40.006C336.574 40.5713 336.256 41.7197 336.15 43.451V48.751C336.15 49.3517 335.921 49.864 335.461 50.288C335.037 50.6767 334.507 50.871 333.871 50.871ZM347.692 51.03C347.02 51.03 346.455 50.8357 345.996 50.447C345.536 50.0583 345.307 49.5637 345.307 48.963V36.932C345.307 36.3667 345.519 35.8897 345.943 35.501C346.402 35.077 346.985 34.865 347.692 34.865C348.398 34.865 348.946 35.077 349.335 35.501C349.759 35.8897 349.971 36.3843 349.971 36.985V48.91C349.971 49.5107 349.741 50.023 349.282 50.447C348.858 50.8357 348.328 51.03 347.692 51.03ZM347.692 32.215C346.95 32.215 346.314 31.9853 345.784 31.526C345.254 31.0313 344.989 30.413 344.989 29.671C344.989 28.9997 345.254 28.4167 345.784 27.922C346.314 27.4273 346.95 27.18 347.692 27.18C348.398 27.18 348.999 27.4273 349.494 27.922C350.024 28.4167 350.289 28.9997 350.289 29.671C350.289 30.413 350.024 31.0313 349.494 31.526C348.999 31.9853 348.398 32.215 347.692 32.215ZM361.044 51.03C358.676 51.03 356.768 50.288 355.32 48.804C353.906 47.2847 353.2 45.2707 353.2 42.762C353.2 40.2533 353.889 38.2747 355.267 36.826C356.68 35.342 358.553 34.6 360.885 34.6C362.404 34.6 363.764 35.1477 364.966 36.243V29.3C364.966 28.6993 365.178 28.2047 365.602 27.816C366.026 27.392 366.573 27.18 367.245 27.18C367.951 27.18 368.517 27.392 368.941 27.816C369.4 28.2047 369.63 28.6817 369.63 29.247V48.963C369.63 49.5637 369.4 50.0583 368.941 50.447C368.517 50.8357 367.951 51.03 367.245 51.03C366.114 51.03 365.39 50.5353 365.072 49.546C363.976 50.5353 362.634 51.03 361.044 51.03ZM361.415 46.737C362.475 46.737 363.323 46.366 363.959 45.624C364.63 44.8467 364.966 43.8927 364.966 42.762C364.966 41.596 364.63 40.6597 363.959 39.953C363.323 39.2463 362.475 38.893 361.415 38.893C360.319 38.893 359.436 39.2463 358.765 39.953C358.129 40.6597 357.811 41.596 357.811 42.762C357.811 43.8927 358.129 44.8467 358.765 45.624C359.436 46.366 360.319 46.737 361.415 46.737Z" fill="white"/>
</svg>
